<svg xmlns="http://www.w3.org/2000/svg" xmlns:xlink="http://www.w3.org/1999/xlink" version="1.1" x="0px" y="0px" viewBox="0 0 100 125" enable-background="new 0 0 100 100" xml:space="preserve"><g><path d="M15.91,20.172c1.479,1.277,4.559,2.885,10.838,3.917h0.002l0.002,0c0,0,0.151,0.026,0.448,0.073   c0.297,0.047,0.738,0.114,1.31,0.194c1.145,0.162,2.816,0.377,4.917,0.592c4.2,0.431,10.117,0.862,16.972,0.862   c7.14,0,15.297-0.467,23.594-1.888l0,0c0,0,0.072-0.013,0.212-0.042c0.14-0.028,0.344-0.071,0.601-0.129   c0.513-0.116,1.234-0.291,2.06-0.526c1.651-0.47,3.724-1.188,5.375-2.14c1.103-0.632,2.007-1.372,2.487-2.156   c0.103-0.167,0.169-0.337,0.234-0.507c-1.482-2.528-8.065-4.16-8.065-4.16c-8.041-2.122-18.012-2.379-18.012-2.379V6.417h-18.01   v5.402c-7.912,0.065-18.14,2.573-18.14,2.573c-6.311,1.739-7.703,3.588-8.012,4.342C14.909,19.103,15.247,19.6,15.91,20.172z    M44.444,9.76h11v1.898c0,0-5.404-0.289-11-0.032V9.76z"/></g><g><path d="M18.083,27.042c1.539,0.559,3.36,1.011,6.382,1.633c6.042,1.244,14.859,2.489,25.943,2.49c0.017,0,1.01-0.021,2.674-0.093   c1.676-0.073,4.023-0.198,6.708-0.407c5.366-0.417,12.082-1.173,17.434-2.509c3.461-0.857,6.341-1.986,7.872-3.322   c0.103-0.255,0.098-0.408,0.098-0.408v-4.472c-0.302,0.373-0.64,0.727-1.039,1.046c-1.149,0.917-2.633,1.641-4.106,2.217   c-2.945,1.147-5.856,1.686-5.874,1.689l-0.003,0l-0.004,0c-8.369,1.433-16.583,1.903-23.769,1.903   c-13.794,0-23.798-1.733-23.818-1.736l0.004,0c-6.387-1.052-9.641-2.694-11.329-4.146c-0.244-0.208-0.445-0.412-0.626-0.61   l0.078,4.931C14.991,25.632,17.167,26.708,18.083,27.042z"/><path d="M77.467,29.126c-3.636,0.907-7.846,1.544-11.849,1.994c-8.006,0.899-15.183,1.044-15.191,1.045h-0.005h-0.005   c-16.483,0-27.998-2.733-32.917-4.17l6.779,57.989c2.766,7.783,24.766,7.653,24.766,7.653c24.635,0,26.5-7.075,26.5-7.075   l6.84-59.007C80.948,28.156,79.279,28.671,77.467,29.126z"/></g><text x="0" y="115" fill="#000000" font-size="5px" font-weight="bold" font-family="'Helvetica Neue', Helvetica, Arial-Unicode, Arial, Sans-serif">Created by bmijnlieff</text><text x="0" y="120" fill="#000000" font-size="5px" font-weight="bold" font-family="'Helvetica Neue', Helvetica, Arial-Unicode, Arial, Sans-serif">from the Noun Project</text></svg>