<svg xmlns="http://www.w3.org/2000/svg" width="787" height="112.4" viewBox="0 0 787 112.4"><style>.st0{fill:#FFFFFF;}</style><path class="st0" d="M0 0h22.5v104.4H0V0z"/><path class="st0" d="M13.5 0h98.9v22.5H13.5V0zM0 89.9h22.5v22.5H0V89.9zM134.9 0h22.5v104.4h-22.5V0z"/><path class="st0" d="M134.9 89.9h22.5v22.5h-22.5V89.9z"/><path class="st0" d="M144.7 89.9h102.6v22.5H144.7V89.9z"/><path class="st0" d="M224.8 0h22.5v99.4h-22.5V0zm45 0h61.7v22.5h-61.7V0z"/><path class="st0" d="M269.8 0h22.5v93.8h-22.5V0z"/><path class="st0" d="M269.8 89.9h22.5v22.5h-22.5V89.9zm45-89.9h22.5v95.7h-22.5V0z"/><path class="st0" d="M314.8 89.9h22.5v22.5h-22.5V89.9zm44.9 0h22.5v22.5h-22.5V89.9z"/><path class="st0" d="M359.7 0h22.5v94.8h-22.5V0zm134.9 55.7h22.5v56.7h-22.5V55.7zm-89.9 34.2h22.5v22.5h-22.5V89.9z"/><path class="st0" d="M404.7 0h22.5v111.6h-22.5V0z"/><path class="st0" d="M421.5 45h95.6v22.5h-95.6V45zm3 44.9h92.6v22.5h-92.6V89.9zm115.1 0h22.5v22.5h-22.5V89.9z"/><path class="st0" d="M539.6 0h22.5v91.3h-22.5V0z"/><path class="st0" d="M558.3 89.9H652v22.5h-93.7V89.9zm138.7 0h22.5v22.5H697V89.9zm44.9 0h22.5v22.5h-22.5V89.9zm-67.4-22.4H697V90h-22.5V67.5zM697 45h22.5v22.5H697V45zm44.9 0h22.5v22.5h-22.5V45zm-67.4-22.5H697V45h-22.5V22.5z"/><path class="st0" d="M674.5 89.9H697v22.5h-22.5V89.9zm44.9 0h22.5v22.5h-22.5V89.9z"/><path class="st0" d="M687.2 89.9h99.7v22.5h-99.7V89.9zM674.5 45H697v22.5h-22.5V45zm44.9 0h22.5v22.5h-22.5V45z"/><path class="st0" d="M684 45h102.8v22.5H684V45zm-9.5-45H787v22.5H674.5V0z"/><path class="st0" d="M674.5 0H697v112.4h-22.5V0zm-354 0h61.7v22.5h-61.7V0z"/></svg>