<svg xmlns="http://www.w3.org/2000/svg" width="100" height="118">
  <polygon fill="#FFF" points="84.072,107.351 84.072,75.8 94.588,75.8 94.588,117.869 0,117.869 0,75.8 10.516,75.8 10.516,107.351"/>
  <path fill="#FFF" d="M22.09 72.898l51.457 10.815L75.71 73.42 24.252 62.607 22.09 72.898zm6.807-24.64l47.666 22.2 4.44-9.533-47.666-22.2-4.44 9.534zm13.19-23.384l40.406 33.65 6.73-8.08-40.405-33.65-6.73 8.08zM68.172 0l-8.437 6.276 31.38 42.19 8.44-6.275L68.17 0zM21.045 96.833h52.582V86.316H21.044v10.517z"/>
</svg>